P3
3 2 255
0 0 0 255 255 255 100 100 100
255 255 255 0 0 0 25 25 25