P3 4 3 255
255 255 255
255 255 255
0 100 0
0 100 0
0 100 0
0 100 0
100 0 0
100 0 0
100 0 0
100 0 0
0 0 0
0 0 0
