P3 4 4 255
21 21 21
21 21 21
0 0 0
0 0 0
21 21 21
21 21 21
0 0 0
0 0 0
71 71 71
71 71 71
254 254 254
254 254 254
71 71 71
71 71 71
254 254 254
254 254 254
