P3 4 4 255
0 0 0
0 0 0
0 0 0
0 0 0
0 0 0
0 0 0
0 0 0
0 0 0
100 100 100
100 100 100
255 255 255
255 255 255
100 100 100
100 100 100
255 255 255
255 255 255
