P3 4 4 255
56 0 0
50 0 0
12 0 0
1 0 0
47 18 0
57 36 15
59 58 49
56 55 53
9 60 0
62 108 52
165 176 160
142 144 141
5 51 3
51 91 48
135 144 133
108 110 108
