P3 4 4 255
50 0 0
50 0 0
0 0 0
0 0 0
50 0 0
50 0 0
0 0 0
0 0 0
0 50 0
0 50 0
205 205 205
205 205 205
0 50 0
0 50 0
205 205 205
205 205 205
