P3 4 4 255
56 0 31
50 0 3
12 0 16
18 6 35
50 19 24
57 37 22
60 59 54
61 75 61
34 86 30
66 111 59
166 177 162
145 164 144
46 96 45
58 99 56
136 147 135
112 119 111
