P3 4 4 255
143 0 0
122 0 0
0 0 0
0 0 0
127 0 0
166 0 0
102 51 63
53 51 79
0 104 0
122 246 69
255 255 255
255 255 255
0 142 0
38 255 63
255 255 255
255 255 255
