P3 4 4 255
33 33 33
33 33 33
0 0 0
0 0 0
33 33 33
33 33 33
0 0 0
0 0 0
33 33 33
33 33 33
255 255 255
255 255 255
33 33 33
33 33 33
255 255 255
255 255 255
