P3 4 4 255
144 0 31
121 0 0
0 0 0
0 0 7
64 0 0
117 0 0
70 25 25
19 69 36
0 89 0
24 160 0
255 255 255
255 255 255
0 198 1
0 191 0
255 255 255
255 255 255
