P3 4 4 255
150 50 50
150 50 50
50 50 50
50 50 50
150 50 50
150 50 50
50 50 50
50 50 50
50 150 50
50 150 50
255 255 255
255 255 255
50 150 50
50 150 50
255 255 255
255 255 255
