P3 16 16 255
9 10 3
14 16 4
17 20 5
21 24 9
28 32 14
32 36 15
26 30 10
16 20 4
14 19 1
18 22 1
17 22 2
16 21 2
23 28 7
30 35 13
31 36 12
21 24 8
19 21 9
26 29 10
30 35 12
35 40 15
44 50 20
50 57 22
41 47 15
28 35 7
27 34 4
30 37 5
31 37 6
28 34 6
25 31 7
30 37 11
36 42 14
25 29 10
29 32 16
37 42 17
41 48 19
48 55 21
55 62 22
61 70 25
58 67 23
47 56 15
42 51 11
43 51 10
41 49 11
40 47 12
37 44 14
37 43 15
35 42 14
24 28 10
35 39 18
51 58 26
59 66 29
66 75 30
74 83 32
85 95 40
91 101 45
79 89 36
64 74 24
56 65 17
54 62 16
58 66 21
63 71 29
68 77 36
67 75 37
45 50 24
30 34 13
51 58 24
65 73 30
75 84 34
85 95 40
101 111 54
111 122 64
104 114 57
88 98 43
79 88 36
74 83 32
69 79 30
74 84 36
92 102 50
98 108 55
66 73 37
16 20 6
32 37 11
43 50 16
52 60 21
64 72 31
78 86 43
89 98 52
96 104 55
94 102 52
85 93 45
75 83 38
60 68 27
55 64 24
74 83 36
88 97 46
59 65 30
13 15 6
22 25 8
26 31 9
29 35 10
33 40 14
41 48 20
55 62 28
70 77 37
74 80 39
64 70 32
52 58 25
41 47 17
35 42 14
45 52 19
54 61 24
36 41 16
15 16 7
22 24 9
25 28 8
27 31 8
29 35 10
36 42 14
49 55 21
58 64 26
55 61 24
50 55 21
39 44 15
26 31 9
22 26 7
28 33 11
32 37 13
21 24 9
16 17 6
25 27 10
31 34 11
38 42 14
43 48 17
49 55 20
58 64 24
57 63 23
51 57 19
45 50 16
33 38 10
20 25 5
15 19 3
20 24 7
26 29 10
18 21 7
16 18 6
27 30 10
36 39 14
44 48 18
48 53 21
56 62 26
63 69 28
61 67 24
57 62 22
48 53 18
35 40 11
21 26 5
15 20 3
18 22 4
25 29 8
22 24 8
14 15 5
25 28 9
37 40 15
45 49 20
51 55 25
57 63 28
59 65 25
57 63 21
57 63 22
53 59 20
43 48 15
35 40 13
29 34 9
25 30 7
28 33 9
24 27 8
12 14 5
29 31 14
44 47 23
51 55 27
54 59 28
54 59 26
48 54 18
46 52 15
48 54 17
52 58 19
52 58 20
54 60 23
51 57 21
42 48 16
38 44 14
29 33 12
19 20 10
36 37 20
42 45 23
41 44 21
40 44 19
40 44 16
40 45 15
39 44 13
45 51 16
52 58 19
51 57 18
59 66 25
67 74 31
60 67 26
53 59 23
38 42 17
23 24 13
32 33 17
31 32 14
28 30 11
28 31 11
32 35 12
32 36 11
33 38 11
46 52 16
51 57 18
46 53 15
55 63 21
73 82 31
75 84 32
63 70 24
40 45 16
17 18 8
22 23 9
22 23 7
21 22 6
22 24 7
23 25 7
23 26 6
30 34 10
43 48 15
46 53 15
47 54 16
59 67 22
75 84 30
77 86 29
63 71 21
37 42 12
8 8 2
11 11 3
11 12 3
12 12 3
11 13 3
11 13 2
13 15 3
20 22 7
28 31 10
31 35 10
36 40 12
42 47 15
49 55 19
50 56 18
41 46 13
24 27 8
