P3 22 22 255
247 134 87
244 130 85
244 135 88
241 134 89
231 122 84
217 107 77
219 109 77
224 113 79
216 109 78
216 111 80
222 118 81
219 117 80
215 115 78
215 116 79
217 118 80
207 109 76
203 105 74
215 117 80
230 129 85
226 122 83
217 116 79
201 105 74
245 133 86
241 128 85
243 130 86
241 133 88
231 123 84
215 106 76
221 111 78
221 110 78
225 115 79
229 119 81
229 122 82
221 120 80
217 118 79
210 111 77
205 107 75
203 105 74
197 101 73
200 105 75
203 107 75
209 111 77
209 111 77
200 103 74
233 118 81
243 129 85
245 135 88
238 127 86
223 113 79
220 110 77
228 117 80
234 121 82
237 124 83
240 127 84
234 124 83
235 131 85
225 124 82
209 111 77
201 103 74
203 105 74
197 102 73
192 99 71
191 98 71
193 98 71
195 98 72
203 104 74
234 124 84
244 136 89
249 146 95
241 133 88
231 119 81
237 123 83
236 123 83
231 119 81
225 114 79
226 117 80
228 124 82
224 122 81
217 118 79
211 113 77
210 113 77
207 110 76
202 106 75
195 101 72
191 98 71
191 97 71
192 97 71
198 100 73
241 136 94
242 135 89
240 129 86
239 127 85
234 122 83
234 124 83
235 127 83
231 123 82
227 118 80
224 116 79
225 121 81
210 112 77
205 108 75
203 106 75
200 104 74
202 105 74
197 101 73
195 102 73
191 98 71
191 97 71
194 99 72
203 105 74
223 116 82
231 123 83
232 121 82
230 119 81
230 119 81
228 121 81
229 125 82
224 120 81
220 115 79
217 114 78
206 108 75
197 102 73
201 105 74
197 102 73
191 97 71
195 100 73
195 100 72
190 97 71
186 94 70
183 92 69
187 95 70
208 107 75
214 106 76
214 107 77
224 114 79
222 111 78
223 113 79
224 117 80
221 119 80
211 112 77
204 107 75
198 103 73
191 97 71
195 100 72
197 101 73
192 98 71
187 96 70
189 96 71
190 97 71
186 94 69
182 92 69
180 91 69
184 93 69
208 107 75
219 110 77
213 105 75
211 103 75
216 107 76
219 109 77
221 113 78
214 113 77
198 104 73
193 100 72
197 103 73
192 97 71
196 100 72
189 95 70
188 95 70
192 98 71
192 98 71
190 96 71
187 95 70
186 94 69
187 95 70
189 95 70
199 99 73
219 109 77
219 108 77
212 103 75
211 102 75
217 108 77
222 113 79
205 107 75
190 98 71
186 95 70
188 96 71
182 92 69
180 90 69
183 93 69
190 97 71
195 99 72
193 98 71
198 101 73
199 102 73
197 101 73
199 101 73
200 102 73
202 103 73
217 107 77
217 107 76
217 107 76
213 105 76
215 108 77
211 108 76
196 102 73
197 102 73
200 103 74
190 97 71
185 95 70
188 97 71
191 98 71
197 100 72
201 103 73
205 105 75
207 106 75
205 105 75
207 106 75
207 105 75
201 102 73
193 97 71
215 105 76
215 105 76
218 108 77
215 108 77
209 106 75
209 109 76
203 107 75
209 112 77
210 111 77
198 103 73
194 99 72
199 102 73
200 102 73
203 104 74
207 106 75
209 108 76
207 106 75
207 106 75
207 106 75
203 103 74
195 99 72
191 97 71
213 105 75
214 105 75
217 109 77
213 108 76
211 107 75
213 111 77
214 115 78
213 115 78
210 111 77
201 104 74
198 99 72
206 105 75
205 104 74
206 105 75
207 106 75
210 107 76
205 104 74
207 106 75
203 103 74
196 99 72
195 98 72
194 98 71
209 102 74
214 105 76
216 109 77
214 108 77
213 107 76
217 111 77
209 108 76
199 101 73
193 96 71
193 96 71
199 99 72
209 105 75
207 104 75
207 105 75
210 109 77
211 109 77
203 102 74
203 103 74
201 101 73
201 102 73
200 101 73
199 101 73
210 103 75
215 107 76
215 108 77
210 105 75
205 102 75
205 103 75
203 103 74
199 100 73
196 98 72
199 101 73
197 99 72
203 102 74
205 104 76
207 111 82
201 105 78
201 103 74
200 102 73
201 101 73
201 101 73
203 101 73
205 103 74
204 103 74
219 111 78
214 107 76
218 111 78
213 106 76
213 107 76
217 111 78
203 101 73
204 102 73
209 106 76
211 109 77
200 101 74
202 102 74
198 101 73
193 99 73
190 98 72
198 101 73
199 101 73
201 101 73
200 101 73
199 99 72
198 98 72
205 103 74
223 113 79
214 105 76
221 113 79
222 113 79
217 108 77
218 109 77
211 105 75
216 109 77
221 113 79
227 124 85
207 106 77
201 103 74
195 100 72
189 97 71
189 96 71
197 101 72
198 101 73
200 101 73
197 98 72
193 95 71
188 91 70
201 100 73
225 114 79
218 108 77
228 118 81
227 119 81
220 111 78
215 107 77
217 108 77
222 112 78
223 113 79
219 111 78
211 107 76
201 103 74
195 100 72
190 98 71
190 98 71
195 99 72
198 101 73
198 99 72
194 95 71
197 95 71
197 94 72
203 100 74
220 117 80
212 110 78
214 111 78
214 111 78
210 108 78
209 110 80
205 105 76
211 109 78
211 110 78
208 108 77
206 108 76
189 98 72
180 92 70
178 92 70
182 96 71
191 100 73
194 101 73
194 99 73
199 102 74
203 102 75
202 104 77
200 104 77
255 255 255
255 255 255
255 255 255
255 255 255
255 255 255
255 255 255
255 255 255
255 255 255
255 255 255
255 255 255
255 255 255
255 255 255
255 255 255
255 255 255
255 255 255
255 255 255
255 255 255
255 255 255
255 255 255
255 255 255
255 255 255
255 255 255
255 255 255
255 255 255
255 255 255
255 255 255
255 255 255
255 255 255
255 255 255
255 255 255
255 255 255
255 255 255
255 255 255
255 255 255
255 255 255
255 255 255
255 255 255
255 255 255
255 255 255
255 255 255
255 255 255
255 255 255
255 255 255
255 255 255
255 255 255
255 255 255
255 255 255
255 255 255
255 255 255
255 255 255
255 255 255
255 255 255
255 255 255
255 255 255
255 255 255
255 255 255
255 255 255
255 255 255
255 255 255
255 255 255
255 255 255
255 255 255
255 255 255
255 255 255
255 255 255
255 255 255
255 255 255
255 255 255
255 255 255
255 255 255
255 255 255
255 255 255
255 255 255
255 255 255
255 255 255
255 255 255
255 255 255
255 255 255
255 255 255
255 255 255
255 255 255
255 255 255
255 255 255
255 255 255
255 255 255
255 255 255
255 255 255
255 255 255
