P3 22 22 255
151 55 24
167 66 29
176 72 33
180 79 35
165 67 30
153 55 24
157 59 26
167 68 30
165 66 29
165 65 28
169 67 30
172 68 31
166 61 30
166 59 28
174 63 29
169 59 27
167 57 27
181 72 34
191 84 39
194 85 38
194 80 35
197 84 37
150 53 24
159 61 27
159 61 27
153 57 25
150 55 25
147 51 23
153 55 24
155 57 25
160 61 27
167 68 29
171 70 30
179 72 32
179 69 31
175 65 29
171 60 28
171 61 28
165 56 26
181 73 34
191 83 38
193 80 36
191 78 35
195 83 36
153 54 24
145 48 22
143 48 21
141 48 21
142 49 21
147 52 23
153 55 24
151 53 24
159 61 27
175 74 32
185 81 35
184 74 33
190 77 34
187 74 33
184 71 32
178 67 30
170 60 27
173 63 29
188 77 36
195 85 38
193 79 35
183 68 31
148 50 23
142 47 21
141 47 21
141 48 21
145 51 22
152 56 25
157 60 26
160 63 27
161 63 27
167 68 29
174 72 31
178 74 32
176 67 30
175 64 29
181 69 31
186 73 33
187 73 33
181 69 31
191 83 38
199 96 45
194 86 39
184 74 34
153 55 24
144 49 22
141 47 21
141 48 21
145 52 23
147 51 23
152 55 24
150 54 24
153 56 25
155 58 25
160 62 27
175 71 31
174 66 29
177 68 30
181 73 32
185 77 33
184 74 33
184 72 33
189 77 35
190 79 36
192 85 39
191 86 44
158 57 25
137 45 20
133 42 19
136 44 20
140 47 21
145 50 22
145 50 23
141 47 21
147 52 23
151 55 24
147 52 23
156 58 25
167 64 28
170 65 29
174 70 31
179 75 32
178 71 31
180 69 31
180 69 31
182 71 32
181 73 33
173 66 32
158 57 25
134 43 19
130 41 19
132 42 19
136 44 19
140 47 21
139 46 21
137 46 20
142 48 21
147 51 23
145 50 22
141 47 21
148 53 23
154 57 25
161 62 27
171 69 30
174 67 30
173 63 29
172 61 28
174 64 29
164 57 27
164 56 26
149 49 23
139 45 20
137 45 20
136 44 19
137 45 20
140 46 21
142 48 21
142 48 21
138 45 20
139 45 20
146 50 22
142 47 21
147 53 23
143 50 22
148 54 23
164 63 27
171 63 28
169 59 27
166 57 26
161 53 25
163 55 25
169 60 27
152 53 23
150 52 23
149 51 23
147 51 23
149 52 23
148 51 23
143 48 21
145 49 22
140 47 21
133 43 19
130 40 19
132 42 19
138 46 21
136 45 20
140 48 21
155 57 25
172 63 29
167 58 27
161 52 25
162 53 25
169 58 27
169 59 27
143 47 21
151 52 23
157 55 25
157 56 25
155 55 25
157 56 25
155 55 25
151 53 23
147 50 22
141 48 21
138 47 21
135 45 20
140 47 21
150 53 24
147 52 23
146 52 23
161 58 26
165 58 27
163 55 26
167 57 26
167 57 26
167 57 27
141 47 21
145 49 22
153 53 24
157 56 25
157 56 25
157 56 25
159 58 26
157 56 25
153 54 24
150 52 23
149 52 23
144 49 22
148 53 23
160 61 27
159 62 27
153 57 25
159 59 26
159 56 25
165 58 27
168 58 27
165 55 26
165 55 26
144 48 21
145 48 22
146 49 22
153 53 24
157 56 25
155 54 24
160 57 26
157 56 25
156 55 25
155 54 24
156 55 25
148 49 22
151 54 24
160 61 27
163 65 28
164 65 28
163 61 27
161 57 25
163 58 26
167 59 27
164 55 25
163 55 25
149 51 23
150 51 23
151 52 23
151 51 23
153 53 24
153 52 24
161 59 27
160 59 27
157 55 25
157 54 25
159 55 25
149 49 22
143 46 21
143 46 21
149 51 23
159 58 26
167 61 27
163 57 26
164 58 27
166 59 27
164 55 26
159 52 24
154 53 24
155 53 24
153 51 23
151 51 23
151 51 23
150 52 23
151 53 24
151 55 28
157 61 32
155 54 26
153 52 24
147 49 22
149 51 23
146 48 22
149 50 23
153 53 24
155 53 25
155 52 25
160 55 25
165 58 27
165 57 26
160 53 25
155 53 24
148 48 22
149 49 22
150 51 23
151 51 23
149 51 23
148 51 23
140 48 22
143 49 23
148 51 23
152 52 24
150 51 24
161 59 27
159 56 26
154 52 23
153 51 23
167 61 28
163 57 26
163 56 26
168 61 28
164 57 26
169 61 28
151 50 23
138 41 20
143 45 21
147 48 22
150 51 23
148 51 23
147 51 22
139 46 21
139 47 21
145 50 22
151 53 24
157 56 27
177 74 35
171 63 29
166 59 27
161 55 25
168 59 27
167 58 27
172 63 29
171 63 29
164 55 26
173 63 29
153 50 24
147 44 22
147 45 21
144 45 21
148 49 22
148 51 23
145 49 22
140 48 21
140 48 21
145 50 22
151 53 24
161 57 26
169 61 28
173 63 29
172 62 28
167 58 27
165 57 27
170 61 28
177 69 31
178 68 31
168 58 27
175 64 29
150 54 27
152 54 27
153 52 25
149 52 24
144 49 23
144 51 23
141 50 23
132 46 21
128 42 20
130 42 20
139 48 22
156 58 26
158 58 27
161 60 28
161 59 28
155 55 26
159 60 30
160 58 28
164 61 28
164 61 28
162 60 28
170 67 30
255 255 255
255 255 255
255 255 255
255 255 255
255 255 255
255 255 255
255 255 255
255 255 255
255 255 255
255 255 255
255 255 255
255 255 255
255 255 255
255 255 255
255 255 255
255 255 255
255 255 255
255 255 255
255 255 255
255 255 255
255 255 255
255 255 255
255 255 255
255 255 255
255 255 255
255 255 255
255 255 255
255 255 255
255 255 255
255 255 255
255 255 255
255 255 255
255 255 255
255 255 255
255 255 255
255 255 255
255 255 255
255 255 255
255 255 255
255 255 255
255 255 255
255 255 255
255 255 255
255 255 255
255 255 255
255 255 255
255 255 255
255 255 255
255 255 255
255 255 255
255 255 255
255 255 255
255 255 255
255 255 255
255 255 255
255 255 255
255 255 255
255 255 255
255 255 255
255 255 255
255 255 255
255 255 255
255 255 255
255 255 255
255 255 255
255 255 255
255 255 255
255 255 255
255 255 255
255 255 255
255 255 255
255 255 255
255 255 255
255 255 255
255 255 255
255 255 255
255 255 255
255 255 255
255 255 255
255 255 255
255 255 255
255 255 255
255 255 255
255 255 255
255 255 255
255 255 255
255 255 255
255 255 255
