P3 16 16 255
14 19 0
9 14 0
27 32 0
4 10 0
78 84 46
55 62 21
46 53 11
21 28 0
0 8 0
40 48 0
56 65 12
0 9 0
42 51 0
138 148 88
76 86 26
30 40 0
41 45 22
15 19 0
54 58 31
34 40 6
0 6 0
101 108 66
73 80 36
8 16 0
30 38 0
31 39 0
11 19 0
46 54 3
5 13 0
13 22 0
79 88 35
116 126 66
87 91 68
26 31 1
22 28 0
96 103 59
65 73 22
80 89 34
69 78 21
7 16 0
23 32 0
66 74 23
60 67 23
48 54 16
4 10 0
6 11 0
22 27 0
39 46 4
75 81 47
78 85 43
0 8 0
22 31 0
36 46 0
39 50 0
119 130 64
60 71 5
29 39 0
76 85 30
23 31 0
71 78 34
89 96 54
19 26 0
1 8 0
0 8 0
62 70 19
118 128 67
126 136 73
162 173 105
114 126 54
116 128 56
171 182 113
163 174 106
53 64 0
47 57 0
47 57 0
48 59 0
79 91 19
221 233 157
175 188 106
169 183 98
0 8 0
25 34 0
38 47 0
71 81 20
82 93 27
149 160 94
172 183 117
161 171 108
175 185 125
106 116 56
182 192 131
122 133 67
0 12 0
47 60 0
196 210 123
173 187 99
1 4 0
15 17 0
7 10 0
2 6 0
2 8 0
1 7 0
1 7 0
29 35 0
107 112 71
74 79 39
1 5 0
57 62 22
20 25 0
7 13 0
75 82 31
82 93 25
41 43 32
26 26 16
25 26 8
20 23 0
1 5 0
9 14 0
5 11 0
87 92 51
40 44 7
46 50 17
44 47 18
2 5 0
2 5 0
6 9 0
41 44 13
3 10 0
14 15 0
51 53 32
11 14 0
25 29 0
52 58 14
15 21 0
54 61 10
68 75 24
9 15 0
57 62 21
48 52 17
16 19 0
2 5 0
1 4 0
62 65 38
4 9 0
18 20 0
41 43 19
35 38 7
91 95 58
77 83 37
90 97 46
125 132 80
66 73 21
65 72 21
12 18 0
35 40 0
7 11 0
5 8 0
13 16 0
14 17 0
70 75 35
44 46 25
32 34 10
35 38 9
33 37 2
15 20 0
1 7 0
71 77 29
68 75 24
84 90 42
111 117 71
30 35 0
1 6 0
2 6 0
12 16 0
6 10 0
81 87 41
10 12 0
1 3 0
43 46 19
77 81 48
55 59 22
135 140 99
53 59 15
29 35 0
32 38 0
69 75 29
54 60 14
98 104 60
47 53 9
24 30 0
12 18 0
61 68 17
1 3 0
32 34 12
92 94 70
57 60 31
77 81 48
21 25 0
31 36 0
55 61 17
1 7 0
75 81 33
26 32 0
62 69 18
155 162 110
61 68 14
7 14 0
105 112 58
50 51 33
62 64 43
35 37 15
5 7 0
10 13 0
5 8 0
76 80 45
1 6 0
37 43 0
120 126 78
38 45 0
16 24 0
85 93 33
134 143 80
21 30 0
131 139 79
54 55 37
33 34 16
24 25 7
16 18 0
19 21 0
42 44 20
23 26 0
3 7 0
58 64 20
53 60 9
9 17 0
3 12 0
90 100 31
121 131 60
60 70 0
33 43 0
17 18 2
18 19 3
17 18 4
14 15 0
29 30 12
1 3 0
26 29 2
3 7 0
87 93 49
63 70 18
79 88 25
108 118 49
89 100 24
146 157 79
68 79 0
111 121 48
