P3 42 43 255
140 140 140
142 142 142
142 142 142
143 143 143
142 142 142
142 142 142
145 145 145
150 150 150
147 147 147
147 147 147
148 148 148
153 153 153
152 152 152
159 159 159
150 150 150
152 152 152
157 157 157
156 156 156
159 159 159
160 160 160
159 159 159
161 161 161
161 161 161
209 209 209
255 255 255
241 241 241
185 185 185
169 169 169
194 194 194
189 189 189
199 199 199
210 210 210
216 216 216
214 214 214
209 209 209
206 206 206
209 209 209
233 233 233
247 247 247
255 255 255
255 255 255
255 255 255
141 141 141
142 142 142
141 141 141
142 142 142
142 142 142
141 141 141
142 142 142
144 144 144
145 145 145
145 145 145
146 146 146
149 149 149
146 146 146
154 154 154
148 148 148
152 152 152
156 156 156
154 154 154
156 156 156
157 157 157
157 157 157
160 160 160
157 157 157
202 202 202
255 255 255
243 243 243
188 188 188
169 169 169
189 189 189
178 178 178
185 185 185
194 194 194
205 205 205
204 204 204
202 202 202
203 203 203
209 209 209
232 232 232
241 241 241
253 253 253
247 247 247
243 243 243
142 142 142
141 141 141
140 140 140
141 141 141
141 141 141
140 140 140
139 139 139
140 140 140
143 143 143
144 144 144
146 146 146
146 146 146
142 142 142
151 151 151
146 146 146
151 151 151
155 155 155
153 153 153
154 154 154
155 155 155
156 156 156
157 157 157
154 154 154
197 197 197
248 248 248
237 237 237
190 190 190
177 177 177
199 199 199
189 189 189
195 195 195
203 203 203
211 211 211
210 210 210
207 207 207
204 204 204
201 201 201
213 213 213
211 211 211
214 214 214
204 204 204
197 197 197
140 140 140
142 142 142
143 143 143
141 141 141
142 142 142
143 143 143
142 142 142
140 140 140
141 141 141
143 143 143
145 145 145
148 148 148
148 148 148
146 146 146
147 147 147
149 149 149
158 158 158
157 157 157
151 151 151
154 154 154
153 153 153
152 152 152
155 155 155
187 187 187
232 232 232
220 220 220
191 191 191
194 194 194
197 197 197
199 199 199
196 196 196
204 204 204
209 209 209
210 210 210
207 207 207
200 200 200
199 199 199
204 204 204
209 209 209
210 210 210
207 207 207
210 210 210
138 138 138
140 140 140
141 141 141
140 140 140
140 140 140
142 142 142
141 141 141
140 140 140
141 141 141
142 142 142
146 146 146
149 149 149
149 149 149
148 148 148
148 148 148
149 149 149
157 157 157
158 158 158
153 153 153
156 156 156
155 155 155
155 155 155
155 155 155
185 185 185
214 214 214
212 212 212
191 191 191
194 194 194
192 192 192
189 189 189
184 184 184
190 190 190
208 208 208
207 207 207
204 204 204
205 205 205
213 213 213
223 223 223
228 228 228
228 228 228
229 229 229
230 230 230
138 138 138
139 139 139
141 141 141
140 140 140
141 141 141
143 143 143
143 143 143
141 141 141
140 140 140
143 143 143
148 148 148
152 152 152
152 152 152
149 149 149
149 149 149
150 150 150
154 154 154
158 158 158
154 154 154
158 158 158
157 157 157
159 159 159
157 157 157
182 182 182
196 196 196
197 197 197
182 182 182
186 186 186
190 190 190
190 190 190
188 188 188
192 192 192
198 198 198
201 201 201
204 204 204
205 205 205
206 206 206
210 210 210
215 215 215
219 219 219
205 205 205
207 207 207
137 137 137
139 139 139
139 139 139
139 139 139
140 140 140
142 142 142
142 142 142
142 142 142
143 143 143
144 144 144
149 149 149
152 152 152
150 150 150
148 148 148
147 147 147
149 149 149
152 152 152
158 158 158
155 155 155
157 157 157
158 158 158
161 161 161
158 158 158
182 182 182
204 204 204
195 195 195
175 175 175
180 180 180
193 193 193
194 194 194
195 195 195
201 201 201
208 208 208
208 208 208
207 207 207
201 201 201
197 197 197
196 196 196
201 201 201
207 207 207
215 215 215
219 219 219
137 137 137
137 137 137
137 137 137
139 139 139
138 138 138
139 139 139
140 140 140
140 140 140
145 145 145
147 147 147
150 150 150
151 151 151
148 148 148
146 146 146
146 146 146
150 150 150
155 155 155
159 159 159
155 155 155
156 156 156
155 155 155
159 159 159
157 157 157
182 182 182
207 207 207
194 194 194
175 175 175
182 182 182
198 198 198
197 197 197
202 202 202
212 212 212
219 219 219
213 213 213
207 207 207
206 206 206
214 214 214
223 223 223
231 231 231
234 234 234
237 237 237
241 241 241
138 138 138
137 137 137
138 138 138
140 140 140
140 140 140
140 140 140
141 141 141
142 142 142
147 147 147
147 147 147
149 149 149
150 150 150
146 146 146
145 145 145
146 146 146
152 152 152
158 158 158
161 161 161
154 154 154
155 155 155
152 152 152
153 153 153
153 153 153
182 182 182
203 203 203
195 195 195
184 184 184
188 188 188
199 199 199
192 192 192
198 198 198
207 207 207
221 221 221
223 223 223
222 222 222
219 219 219
220 220 220
223 223 223
223 223 223
222 222 222
219 219 219
221 221 221
138 138 138
137 137 137
138 138 138
141 141 141
142 142 142
140 140 140
141 141 141
143 143 143
145 145 145
147 147 147
149 149 149
151 151 151
148 148 148
147 147 147
150 150 150
155 155 155
157 157 157
159 159 159
153 153 153
154 154 154
149 149 149
149 149 149
151 151 151
182 182 182
207 207 207
204 204 204
192 192 192
184 184 184
194 194 194
185 185 185
186 186 186
187 187 187
184 184 184
199 199 199
209 209 209
206 206 206
203 203 203
207 207 207
212 212 212
213 213 213
208 208 208
210 210 210
134 134 134
134 134 134
135 135 135
138 138 138
140 140 140
138 138 138
138 138 138
140 140 140
143 143 143
146 146 146
149 149 149
151 151 151
150 150 150
149 149 149
153 153 153
157 157 157
155 155 155
155 155 155
151 151 151
153 153 153
150 150 150
147 147 147
150 150 150
184 184 184
200 200 200
196 196 196
182 182 182
172 172 172
189 189 189
192 192 192
195 195 195
188 188 188
188 188 188
197 197 197
196 196 196
185 185 185
181 181 181
191 191 191
198 198 198
199 199 199
203 203 203
206 206 206
137 137 137
139 139 139
139 139 139
140 140 140
139 139 139
138 138 138
139 139 139
142 142 142
144 144 144
140 140 140
153 153 153
158 158 158
151 151 151
151 151 151
152 152 152
153 153 153
154 154 154
153 153 153
150 150 150
153 153 153
149 149 149
145 145 145
160 160 160
195 195 195
205 205 205
198 198 198
187 187 187
183 183 183
200 200 200
186 186 186
199 199 199
199 199 199
200 200 200
204 204 204
207 207 207
203 203 203
199 199 199
201 201 201
206 206 206
209 209 209
216 216 216
219 219 219
139 139 139
139 139 139
139 139 139
141 141 141
141 141 141
140 140 140
140 140 140
142 142 142
142 142 142
140 140 140
155 155 155
161 161 161
152 152 152
149 149 149
150 150 150
153 153 153
155 155 155
157 157 157
154 154 154
151 151 151
149 149 149
148 148 148
163 163 163
192 192 192
203 203 203
200 200 200
198 198 198
186 186 186
196 196 196
189 189 189
202 202 202
203 203 203
211 211 211
216 216 216
231 231 231
244 244 244
243 243 243
240 240 240
245 245 245
250 250 250
250 250 250
253 253 253
137 137 137
136 136 136
136 136 136
139 139 139
139 139 139
139 139 139
138 138 138
139 139 139
137 137 137
138 138 138
157 157 157
165 165 165
155 155 155
148 148 148
146 146 146
150 150 150
160 160 160
163 163 163
159 159 159
150 150 150
148 148 148
149 149 149
165 165 165
189 189 189
189 189 189
191 191 191
201 201 201
184 184 184
185 185 185
189 189 189
205 205 205
207 207 207
216 216 216
215 215 215
227 227 227
238 238 238
236 236 236
235 235 235
239 239 239
238 238 238
230 230 230
232 232 232
142 142 142
141 141 141
141 141 141
144 144 144
145 145 145
144 144 144
142 142 142
141 141 141
134 134 134
134 134 134
156 156 156
167 167 167
157 157 157
148 148 148
143 143 143
147 147 147
165 165 165
167 167 167
162 162 162
150 150 150
150 150 150
149 149 149
165 165 165
189 189 189
188 188 188
195 195 195
217 217 217
204 204 204
198 198 198
201 201 201
207 207 207
209 209 209
207 207 207
202 202 202
197 197 197
190 190 190
183 183 183
193 193 193
198 198 198
191 191 191
194 194 194
195 195 195
146 146 146
145 145 145
144 144 144
147 147 147
148 148 148
145 145 145
143 143 143
141 141 141
133 133 133
131 131 131
154 154 154
168 168 168
158 158 158
145 145 145
140 140 140
144 144 144
165 165 165
165 165 165
164 164 164
153 153 153
153 153 153
146 146 146
167 167 167
194 194 194
190 190 190
198 198 198
225 225 225
222 222 222
211 211 211
203 203 203
197 197 197
197 197 197
192 192 192
189 189 189
187 187 187
184 184 184
184 184 184
198 198 198
213 213 213
217 217 217
214 214 214
214 214 214
145 145 145
145 145 145
146 146 146
149 149 149
149 149 149
145 145 145
142 142 142
141 141 141
134 134 134
130 130 130
152 152 152
169 169 169
159 159 159
144 144 144
138 138 138
145 145 145
161 161 161
163 163 163
166 166 166
153 153 153
154 154 154
145 145 145
170 170 170
200 200 200
178 178 178
183 183 183
201 201 201
206 206 206
198 198 198
189 189 189
187 187 187
193 193 193
191 191 191
194 194 194
204 204 204
214 214 214
217 217 217
217 217 217
229 229 229
248 248 248
252 252 252
250 250 250
145 145 145
146 146 146
149 149 149
152 152 152
151 151 151
148 148 148
144 144 144
144 144 144
136 136 136
132 132 132
153 153 153
170 170 170
157 157 157
141 141 141
137 137 137
148 148 148
155 155 155
165 165 165
171 171 171
152 152 152
151 151 151
143 143 143
171 171 171
200 200 200
172 172 172
182 182 182
187 187 187
193 193 193
190 190 190
184 184 184
189 189 189
200 200 200
200 200 200
204 204 204
209 209 209
221 221 221
226 226 226
213 213 213
210 210 210
228 228 228
231 231 231
228 228 228
135 135 135
137 137 137
141 141 141
145 145 145
143 143 143
140 140 140
137 137 137
137 137 137
137 137 137
134 134 134
155 155 155
171 171 171
156 156 156
138 138 138
137 137 137
151 151 151
154 154 154
168 168 168
176 176 176
151 151 151
148 148 148
143 143 143
172 172 172
197 197 197
177 177 177
195 195 195
196 196 196
203 203 203
199 199 199
186 186 186
187 187 187
192 192 192
194 194 194
201 201 201
201 201 201
213 213 213
233 233 233
230 230 230
222 222 222
232 232 232
228 228 228
223 223 223
129 129 129
132 132 132
135 135 135
139 139 139
137 137 137
129 129 129
131 131 131
141 141 141
130 130 130
137 137 137
161 161 161
178 178 178
156 156 156
132 132 132
139 139 139
154 154 154
142 142 142
164 164 164
186 186 186
162 162 162
153 153 153
145 145 145
179 179 179
184 184 184
178 178 178
215 215 215
191 191 191
182 182 182
196 196 196
177 177 177
178 178 178
192 192 192
197 197 197
201 201 201
204 204 204
215 215 215
223 223 223
216 216 216
211 211 211
219 219 219
219 219 219
214 214 214
133 133 133
130 130 130
130 130 130
140 140 140
142 142 142
130 130 130
124 124 124
133 133 133
123 123 123
130 130 130
167 167 167
187 187 187
164 164 164
132 132 132
150 150 150
157 157 157
141 141 141
160 160 160
182 182 182
165 165 165
158 158 158
163 163 163
187 187 187
174 174 174
178 178 178
226 226 226
192 192 192
175 175 175
188 188 188
183 183 183
184 184 184
186 186 186
194 194 194
204 204 204
205 205 205
204 204 204
214 214 214
221 221 221
220 220 220
221 221 221
221 221 221
217 217 217
139 139 139
127 127 127
119 119 119
136 136 136
150 150 150
141 141 141
127 127 127
130 130 130
117 117 117
126 126 126
172 172 172
193 193 193
165 165 165
128 128 128
157 157 157
152 152 152
117 117 117
150 150 150
185 185 185
167 167 167
148 148 148
158 158 158
187 187 187
164 164 164
169 169 169
243 243 243
212 212 212
192 192 192
195 195 195
196 196 196
199 199 199
196 196 196
203 203 203
194 194 194
191 191 191
206 206 206
224 224 224
222 222 222
222 222 222
233 233 233
232 232 232
229 229 229
141 141 141
123 123 123
106 106 106
125 125 125
152 152 152
157 157 157
133 133 133
123 123 123
115 115 115
129 129 129
172 172 172
195 195 195
161 161 161
133 133 133
169 169 169
150 150 150
116 116 116
144 144 144
182 182 182
162 162 162
154 154 154
172 172 172
200 200 200
158 158 158
169 169 169
251 251 251
224 224 224
209 209 209
207 207 207
209 209 209
213 213 213
210 210 210
218 218 218
224 224 224
219 219 219
211 211 211
211 211 211
211 211 211
213 213 213
224 224 224
231 231 231
230 230 230
143 143 143
130 130 130
104 104 104
121 121 121
159 159 159
177 177 177
144 144 144
118 118 118
116 116 116
137 137 137
173 173 173
195 195 195
160 160 160
152 152 152
184 184 184
160 160 160
115 115 115
144 144 144
184 184 184
162 162 162
164 164 164
180 180 180
206 206 206
161 161 161
160 160 160
248 248 248
242 242 242
233 233 233
208 208 208
193 193 193
199 199 199
208 208 208
211 211 211
216 216 216
210 210 210
205 205 205
212 212 212
217 217 217
219 219 219
226 226 226
218 218 218
218 218 218
139 139 139
137 137 137
109 109 109
124 124 124
166 166 166
192 192 192
154 154 154
122 122 122
127 127 127
152 152 152
182 182 182
197 197 197
168 168 168
168 168 168
189 189 189
166 166 166
126 126 126
158 158 158
189 189 189
167 167 167
170 170 170
179 179 179
199 199 199
164 164 164
163 163 163
243 243 243
255 255 255
255 255 255
234 234 234
198 198 198
182 182 182
175 175 175
170 170 170
171 171 171
178 178 178
196 196 196
213 213 213
210 210 210
208 208 208
218 218 218
218 218 218
220 220 220
141 141 141
148 148 148
122 122 122
131 131 131
166 166 166
194 194 194
160 160 160
135 135 135
145 145 145
168 168 168
200 200 200
207 207 207
188 188 188
178 178 178
187 187 187
170 170 170
164 164 164
183 183 183
184 184 184
173 173 173
187 187 187
204 204 204
203 203 203
172 172 172
191 191 191
229 229 229
240 240 240
249 249 249
255 255 255
241 241 241
203 203 203
161 161 161
171 171 171
200 200 200
215 215 215
212 212 212
213 213 213
214 214 214
214 214 214
218 218 218
226 226 226
231 231 231
164 164 164
175 175 175
149 149 149
151 151 151
175 175 175
200 200 200
172 172 172
155 155 155
158 158 158
178 178 178
216 216 216
218 218 218
208 208 208
187 187 187
189 189 189
177 177 177
177 177 177
198 198 198
183 183 183
179 179 179
189 189 189
214 214 214
209 209 209
197 197 197
201 201 201
216 216 216
213 213 213
209 209 209
232 232 232
254 254 254
240 240 240
207 207 207
186 186 186
189 189 189
191 191 191
200 200 200
216 216 216
222 222 222
223 223 223
231 231 231
226 226 226
231 231 231
165 165 165
172 172 172
169 169 169
167 167 167
193 193 193
209 209 209
191 191 191
175 175 175
173 173 173
180 180 180
207 207 207
227 227 227
218 218 218
195 195 195
185 185 185
183 183 183
187 187 187
196 196 196
184 184 184
181 181 181
210 210 210
215 215 215
211 211 211
198 198 198
210 210 210
220 220 220
210 210 210
196 196 196
196 196 196
224 224 224
255 255 255
255 255 255
214 214 214
190 190 190
179 179 179
198 198 198
229 229 229
251 251 251
255 255 255
251 251 251
244 244 244
244 244 244
157 157 157
172 172 172
182 182 182
181 181 181
193 193 193
202 202 202
189 189 189
181 181 181
176 176 176
173 173 173
196 196 196
220 220 220
228 228 228
197 197 197
181 181 181
181 181 181
200 200 200
198 198 198
186 186 186
192 192 192
226 226 226
218 218 218
211 211 211
198 198 198
206 206 206
223 223 223
229 229 229
206 206 206
198 198 198
185 185 185
221 221 221
245 245 245
234 234 234
235 235 235
228 228 228
217 217 217
213 213 213
217 217 217
218 218 218
218 218 218
217 217 217
217 217 217
179 179 179
184 184 184
188 188 188
180 180 180
176 176 176
180 180 180
177 177 177
177 177 177
168 168 168
171 171 171
203 203 203
222 222 222
225 225 225
183 183 183
177 177 177
192 192 192
201 201 201
194 194 194
201 201 201
216 216 216
240 240 240
214 214 214
209 209 209
211 211 211
213 213 213
215 215 215
214 214 214
209 209 209
221 221 221
198 198 198
198 198 198
202 202 202
233 233 233
255 255 255
255 255 255
234 234 234
203 203 203
206 206 206
219 219 219
227 227 227
237 237 237
237 237 237
164 164 164
161 161 161
169 169 169
174 174 174
178 178 178
183 183 183
176 176 176
171 171 171
173 173 173
176 176 176
198 198 198
207 207 207
195 195 195
164 164 164
160 160 160
164 164 164
178 178 178
171 171 171
196 196 196
218 218 218
228 228 228
188 188 188
187 187 187
200 200 200
208 208 208
217 217 217
216 216 216
223 223 223
223 223 223
219 219 219
203 203 203
192 192 192
215 215 215
253 253 253
255 255 255
227 227 227
207 207 207
207 207 207
215 215 215
226 226 226
231 231 231
231 231 231
142 142 142
137 137 137
148 148 148
165 165 165
180 180 180
188 188 188
179 179 179
170 170 170
165 165 165
178 178 178
196 196 196
195 195 195
160 160 160
157 157 157
163 163 163
159 159 159
161 161 161
154 154 154
186 186 186
209 209 209
208 208 208
168 168 168
166 166 166
182 182 182
209 209 209
219 219 219
230 230 230
231 231 231
209 209 209
216 216 216
217 217 217
214 214 214
209 209 209
213 213 213
215 215 215
224 224 224
237 237 237
231 231 231
219 219 219
223 223 223
223 223 223
223 223 223
148 148 148
147 147 147
157 157 157
168 168 168
176 176 176
175 175 175
160 160 160
155 155 155
162 162 162
184 184 184
197 197 197
187 187 187
147 147 147
166 166 166
181 181 181
179 179 179
155 155 155
160 160 160
198 198 198
212 212 212
192 192 192
165 165 165
173 173 173
192 192 192
213 213 213
204 204 204
222 222 222
223 223 223
212 212 212
215 215 215
223 223 223
215 215 215
209 209 209
210 210 210
211 211 211
224 224 224
245 245 245
250 250 250
239 239 239
233 233 233
228 228 228
228 228 228
144 144 144
158 158 158
176 176 176
183 183 183
183 183 183
170 170 170
148 148 148
145 145 145
179 179 179
188 188 188
178 178 178
164 164 164
155 155 155
178 178 178
179 179 179
168 168 168
155 155 155
174 174 174
210 210 210
209 209 209
172 172 172
163 163 163
181 181 181
205 205 205
205 205 205
200 200 200
218 218 218
220 220 220
213 213 213
215 215 215
216 216 216
213 213 213
211 211 211
220 220 220
222 222 222
218 218 218
221 221 221
230 230 230
232 232 232
227 227 227
233 233 233
232 232 232
150 150 150
167 167 167
180 180 180
180 180 180
178 178 178
167 167 167
151 151 151
157 157 157
173 173 173
183 183 183
166 166 166
151 151 151
164 164 164
180 180 180
179 179 179
177 177 177
171 171 171
186 186 186
211 211 211
203 203 203
161 161 161
168 168 168
183 183 183
201 201 201
209 209 209
215 215 215
219 219 219
220 220 220
207 207 207
223 223 223
211 211 211
216 216 216
221 221 221
216 216 216
220 220 220
227 227 227
224 224 224
220 220 220
225 225 225
232 232 232
229 229 229
229 229 229
148 148 148
162 162 162
166 166 166
160 160 160
170 170 170
158 158 158
153 153 153
161 161 161
164 164 164
166 166 166
159 159 159
160 160 160
168 168 168
165 165 165
161 161 161
172 172 172
181 181 181
196 196 196
193 193 193
168 168 168
143 143 143
151 151 151
191 191 191
211 211 211
217 217 217
215 215 215
221 221 221
222 222 222
212 212 212
212 212 212
218 218 218
218 218 218
223 223 223
223 223 223
225 225 225
226 226 226
220 220 220
217 217 217
223 223 223
233 233 233
231 231 231
228 228 228
144 144 144
152 152 152
145 145 145
134 134 134
146 146 146
150 150 150
155 155 155
166 166 166
164 164 164
159 159 159
154 154 154
160 160 160
165 165 165
159 159 159
156 156 156
165 165 165
193 193 193
193 193 193
172 172 172
150 150 150
139 139 139
152 152 152
183 183 183
205 205 205
216 216 216
214 214 214
221 221 221
225 225 225
217 217 217
215 215 215
218 218 218
218 218 218
223 223 223
222 222 222
223 223 223
224 224 224
222 222 222
221 221 221
227 227 227
236 236 236
233 233 233
231 231 231
141 141 141
147 147 147
131 131 131
122 122 122
136 136 136
157 157 157
164 164 164
174 174 174
167 167 167
157 157 157
157 157 157
165 165 165
165 165 165
160 160 160
162 162 162
169 169 169
192 192 192
192 192 192
161 161 161
138 138 138
145 145 145
163 163 163
189 189 189
211 211 211
206 206 206
203 203 203
208 208 208
215 215 215
214 214 214
214 214 214
215 215 215
215 215 215
223 223 223
222 222 222
222 222 222
223 223 223
222 222 222
222 222 222
226 226 226
232 232 232
234 234 234
232 232 232
139 139 139
142 142 142
121 121 121
115 115 115
132 132 132
164 164 164
167 167 167
169 169 169
162 162 162
152 152 152
155 155 155
158 158 158
149 149 149
150 150 150
163 163 163
169 169 169
172 172 172
177 177 177
144 144 144
127 127 127
153 153 153
177 177 177
191 191 191
202 202 202
199 199 199
193 193 193
193 193 193
204 204 204
213 213 213
216 216 216
217 217 217
220 220 220
220 220 220
222 222 222
223 223 223
223 223 223
221 221 221
220 220 220
223 223 223
226 226 226
233 233 233
231 231 231
144 144 144
141 141 141
120 120 120
117 117 117
135 135 135
165 165 165
164 164 164
160 160 160
155 155 155
152 152 152
156 156 156
150 150 150
136 136 136
147 147 147
168 168 168
175 175 175
167 167 167
162 162 162
129 129 129
130 130 130
170 170 170
188 188 188
185 185 185
184 184 184
188 188 188
181 181 181
179 179 179
195 195 195
212 212 212
220 220 220
220 220 220
222 222 222
221 221 221
224 224 224
224 224 224
223 223 223
221 221 221
223 223 223
227 227 227
230 230 230
232 232 232
230 230 230
143 143 143
140 140 140
130 130 130
133 133 133
149 149 149
166 166 166
158 158 158
147 147 147
148 148 148
153 153 153
160 160 160
152 152 152
142 142 142
157 157 157
183 183 183
189 189 189
172 172 172
161 161 161
141 141 141
154 154 154
183 183 183
184 184 184
177 177 177
180 180 180
178 178 178
177 177 177
178 178 178
194 194 194
213 213 213
224 224 224
221 221 221
222 222 222
222 222 222
224 224 224
224 224 224
223 223 223
225 225 225
232 232 232
237 237 237
239 239 239
231 231 231
229 229 229
136 136 136
135 135 135
138 138 138
146 146 146
159 159 159
159 159 159
148 148 148
136 136 136
140 140 140
144 144 144
153 153 153
150 150 150
145 145 145
157 157 157
174 174 174
176 176 176
163 163 163
160 160 160
159 159 159
172 172 172
182 182 182
178 178 178
178 178 178
178 178 178
176 176 176
183 183 183
187 187 187
198 198 198
215 215 215
225 225 225
221 221 221
222 222 222
219 219 219
222 222 222
222 222 222
224 224 224
231 231 231
240 240 240
241 241 241
237 237 237
227 227 227
224 224 224
142 142 142
138 138 138
145 145 145
151 151 151
162 162 162
153 153 153
148 148 148
142 142 142
139 139 139
141 141 141
147 147 147
148 148 148
144 144 144
147 147 147
152 152 152
151 151 151
155 155 155
163 163 163
171 171 171
179 179 179
183 183 183
190 190 190
191 191 191
176 176 176
168 168 168
180 180 180
184 184 184
191 191 191
204 204 204
213 213 213
211 211 211
213 213 213
216 216 216
219 219 219
221 221 221
227 227 227
236 236 236
243 243 243
238 238 238
227 227 227
221 221 221
219 219 219
