P3 42 43 255
49 42 34
45 38 30
52 45 37
58 51 43
66 62 53
57 53 44
52 48 39
46 42 33
46 39 29
48 41 31
55 47 36
56 48 37
54 44 32
57 47 35
64 52 38
63 51 37
72 55 45
80 63 53
87 71 58
95 79 66
99 83 70
106 90 77
109 91 77
93 76 60
89 68 51
101 80 59
109 84 64
115 91 67
132 104 80
140 113 86
142 111 83
142 113 83
145 116 84
145 119 84
149 121 84
155 127 90
166 136 98
173 143 105
170 138 99
159 127 88
153 121 80
151 119 78
45 36 29
42 35 27
47 38 31
53 46 38
66 59 51
63 59 50
55 48 40
43 36 28
47 40 30
53 44 35
61 53 42
60 50 40
55 45 33
69 57 45
86 74 60
90 76 63
77 63 52
77 60 50
75 59 46
88 72 59
98 82 69
94 78 65
96 78 64
95 78 62
97 76 59
104 83 62
112 87 65
122 98 74
143 115 91
152 125 98
152 121 93
151 122 92
148 119 87
148 122 87
150 122 85
152 124 87
161 131 93
170 140 102
173 141 102
169 137 98
159 127 86
156 124 83
53 43 34
49 40 31
40 30 21
42 33 24
58 49 40
73 66 56
67 58 51
56 47 40
57 48 39
63 53 44
70 60 50
65 52 43
54 42 30
71 57 46
97 83 72
103 89 78
86 72 61
75 61 50
55 41 30
68 54 43
99 83 70
100 84 71
95 77 63
97 80 64
99 78 61
98 77 56
103 78 56
118 94 70
141 113 89
151 124 97
152 121 93
151 122 92
151 122 90
150 124 89
152 124 87
151 123 86
155 125 87
162 132 94
169 137 98
171 139 100
163 131 90
161 129 88
54 44 35
51 41 32
30 20 11
27 17 8
45 35 26
74 65 56
75 64 58
71 60 54
65 55 46
62 52 43
69 56 47
63 50 41
50 36 25
61 47 36
85 68 58
92 75 65
81 67 56
76 62 51
43 29 18
44 30 17
86 70 57
104 88 73
102 85 69
101 84 66
109 88 69
102 81 60
104 79 57
119 95 69
139 112 85
147 120 91
151 120 91
151 122 90
150 121 87
150 124 89
152 124 87
151 123 86
151 121 83
153 123 85
159 127 88
162 130 91
164 132 91
162 130 89
52 39 30
55 42 33
34 21 12
28 15 6
45 32 23
74 64 54
80 67 59
82 69 61
75 62 54
65 52 44
69 55 46
72 58 49
66 49 39
67 50 40
81 63 53
86 69 59
86 72 61
91 77 66
58 44 31
41 27 14
69 53 40
93 77 62
108 91 75
119 102 84
120 99 80
113 93 69
117 93 69
128 104 78
140 113 84
143 116 86
148 117 88
149 120 88
149 120 86
148 122 87
151 123 86
151 123 86
151 121 83
150 120 82
155 123 84
158 126 87
165 133 92
163 131 90
54 41 32
60 47 38
44 31 22
35 22 13
49 36 27
70 57 48
77 64 56
87 74 66
80 67 59
70 57 48
71 57 48
79 65 56
82 65 55
77 60 50
80 62 52
86 69 59
109 92 82
106 92 81
75 61 48
52 38 25
61 45 30
79 63 47
106 89 71
129 111 91
127 106 85
125 103 80
132 108 82
141 115 88
141 114 84
140 114 81
144 115 83
144 115 83
149 123 88
148 122 87
150 122 85
151 123 86
152 122 84
152 122 84
158 126 87
164 132 93
166 134 93
164 132 91
56 44 32
64 52 40
57 45 33
46 34 22
59 46 37
63 50 41
68 55 46
79 66 57
78 64 55
73 59 50
71 54 46
77 60 50
82 65 55
76 59 49
74 56 44
81 65 52
110 93 83
107 93 82
88 72 59
66 50 37
57 39 25
69 52 36
102 83 66
123 105 85
136 116 92
136 114 90
145 121 93
150 125 95
144 117 87
141 115 82
147 118 86
147 118 84
149 123 88
148 122 87
151 123 86
152 124 87
152 122 84
151 121 83
159 127 88
168 136 97
166 133 92
164 131 90
60 48 34
74 62 48
78 66 54
72 60 48
83 70 61
71 58 49
66 53 44
74 61 52
78 64 55
80 66 55
76 59 49
77 60 50
85 68 58
81 65 52
79 61 49
88 72 59
98 81 71
112 96 83
109 93 80
86 68 54
60 43 27
70 51 34
109 91 71
132 111 90
139 117 93
139 115 89
147 121 94
147 122 91
138 112 79
138 112 79
147 118 84
147 118 84
149 123 88
149 123 88
153 125 88
154 126 89
150 120 82
147 117 79
155 123 84
165 133 94
164 131 90
161 128 87
59 50 35
76 67 52
89 80 65
89 80 65
90 78 66
79 67 55
65 51 40
71 57 46
87 73 62
97 83 72
83 66 56
67 51 38
80 64 51
96 80 67
95 79 66
93 77 62
87 71 58
104 86 74
129 111 99
122 103 89
80 61 46
89 68 51
104 83 62
123 101 78
133 109 85
141 115 88
144 119 89
147 120 90
133 107 74
149 123 90
140 111 77
145 116 82
150 121 87
145 116 82
148 120 83
155 127 90
154 124 86
150 120 82
157 125 86
164 132 93
162 129 88
162 129 88
53 44 29
67 58 43
85 76 61
92 83 68
95 83 71
82 70 58
62 48 37
59 45 34
93 79 68
104 88 75
94 78 65
80 64 51
71 55 42
94 78 63
95 79 64
84 68 53
73 55 41
93 74 60
129 110 96
131 109 95
93 72 55
86 63 45
103 81 58
129 105 81
131 105 80
126 100 73
145 118 89
147 120 90
139 113 80
141 115 82
145 116 82
142 113 79
140 111 77
149 120 86
150 122 85
146 118 81
151 121 83
160 130 92
164 132 93
159 127 88
166 133 92
165 132 91
60 48 34
59 47 33
69 57 43
80 68 54
90 76 65
89 75 64
77 60 50
72 55 45
78 62 49
102 84 72
115 97 85
105 87 73
65 47 33
83 66 50
97 81 65
96 79 63
74 55 40
82 60 46
120 98 84
135 112 96
115 92 74
90 65 45
97 73 49
118 92 67
139 113 86
131 104 75
149 122 92
150 123 93
138 112 79
141 115 82
149 123 88
141 115 80
138 109 75
139 110 76
141 111 75
154 124 88
177 145 107
182 150 112
173 139 101
167 133 95
161 128 87
161 128 87
56 42 29
51 37 24
62 48 35
79 65 52
97 80 70
105 88 78
97 79 69
88 70 58
85 65 54
97 78 64
115 96 82
114 95 80
79 60 45
74 57 39
80 63 45
78 59 42
84 61 45
80 54 39
112 86 71
135 109 92
135 108 89
95 68 47
94 66 42
109 82 55
136 109 80
146 119 89
157 130 100
158 131 101
135 109 76
142 116 83
143 117 82
140 114 79
138 109 75
142 113 79
145 115 79
154 124 88
169 137 99
163 131 93
153 119 81
157 123 85
156 123 82
156 123 82
81 64 54
78 61 51
86 69 59
91 74 64
96 78 68
101 83 73
96 76 65
91 71 60
95 73 62
98 76 63
120 98 85
129 107 93
116 95 78
82 64 44
78 60 40
85 64 45
104 78 63
99 71 57
123 96 79
145 118 99
156 128 107
116 88 66
117 87 63
130 100 74
138 108 80
146 117 87
145 116 86
152 123 91
149 123 90
145 119 86
127 103 69
118 92 59
144 115 81
182 153 119
188 158 122
157 127 91
139 107 69
139 107 69
149 115 77
160 126 88
164 131 90
164 131 90
97 79 69
102 84 74
108 88 79
100 80 71
99 76 68
103 80 72
101 77 67
101 77 67
95 68 57
98 71 60
129 103 90
145 122 106
148 125 107
105 83 62
99 77 56
114 92 71
130 101 85
123 94 78
132 101 83
147 116 96
171 140 119
146 114 91
141 109 84
142 111 83
144 113 84
146 115 86
143 114 82
138 109 77
147 121 88
124 98 65
122 98 64
126 102 68
162 133 99
202 173 139
207 177 141
164 134 98
135 103 65
138 106 68
153 119 81
161 127 89
170 137 96
170 137 96
77 57 48
92 72 63
105 82 74
104 81 73
118 93 86
127 102 95
116 89 80
108 81 72
104 76 65
101 73 62
124 96 84
146 120 105
154 128 111
122 97 77
106 81 61
106 81 61
131 100 82
129 98 80
119 86 69
125 92 73
158 126 105
153 118 96
145 111 86
132 98 71
137 106 77
154 123 94
158 129 97
135 106 74
124 98 65
111 85 52
146 121 90
169 145 111
163 134 100
164 135 101
158 128 92
147 117 81
145 113 75
149 117 79
152 118 80
152 118 80
152 117 77
152 117 77
90 65 60
97 72 65
94 69 64
94 67 60
120 93 86
138 109 103
120 91 83
104 75 67
103 73 63
110 80 70
135 107 95
155 127 113
147 118 102
124 95 77
114 85 67
114 83 65
120 87 70
132 96 80
119 84 65
116 81 62
147 110 91
151 115 93
147 111 87
132 98 71
144 110 82
151 120 89
141 110 79
125 96 62
125 96 62
150 124 89
183 157 124
181 155 122
143 114 80
120 90 54
109 79 43
130 98 60
161 129 91
183 151 112
189 155 117
184 151 110
179 144 104
179 144 104
92 64 61
103 75 71
77 49 46
80 51 47
104 75 71
131 100 95
102 72 64
85 55 47
86 58 47
106 78 67
146 116 105
147 118 104
140 108 95
120 87 72
125 89 75
115 77 64
116 77 62
137 98 83
122 83 68
118 79 64
128 89 72
153 114 97
147 109 88
135 97 74
138 101 74
151 116 86
146 113 80
139 109 73
162 132 96
182 154 117
169 140 106
135 107 70
116 86 50
121 89 51
123 91 53
134 100 62
150 116 78
155 122 81
156 123 82
164 131 88
159 126 83
164 131 88
69 41 38
76 48 45
52 22 20
61 31 29
97 66 64
125 94 91
91 60 55
65 35 27
74 45 37
96 68 57
130 100 90
139 107 96
122 88 78
116 78 67
127 87 79
110 70 60
106 64 52
125 83 71
126 84 72
115 73 61
129 87 75
146 104 90
144 103 85
113 72 50
128 91 64
166 129 100
175 140 108
182 149 114
185 155 117
171 141 103
131 103 66
91 61 25
103 71 33
132 100 62
149 115 77
146 112 74
146 113 72
147 114 73
147 114 71
151 118 75
159 126 83
164 131 88
67 39 38
65 37 36
39 9 9
54 24 22
97 66 64
126 92 90
85 54 51
53 22 17
58 27 22
82 52 44
112 82 74
130 97 88
102 68 59
106 68 59
130 89 83
109 66 59
70 26 17
102 58 49
133 89 80
111 67 58
114 70 61
123 79 68
141 99 83
105 64 44
100 63 37
180 143 114
197 162 130
196 163 128
164 134 98
128 98 62
110 82 45
105 75 39
102 70 32
105 71 34
112 78 40
130 96 58
146 113 72
143 110 69
143 108 66
153 118 76
152 118 73
154 120 75
72 43 45
58 30 29
34 4 4
51 21 21
93 59 60
111 77 76
75 44 42
49 18 15
47 16 13
68 37 32
104 73 68
128 95 90
97 60 54
91 52 47
125 84 80
103 60 54
60 15 9
89 44 38
129 84 79
107 62 56
109 64 58
124 80 71
150 106 93
102 61 43
101 60 38
185 148 121
177 142 110
167 133 98
141 108 73
123 93 57
129 99 63
138 108 72
145 111 74
150 116 79
144 110 72
139 105 67
145 112 71
150 117 74
154 119 77
161 126 84
152 118 73
152 118 73
70 41 45
52 23 25
36 6 8
55 25 27
87 52 56
91 57 58
67 33 34
57 23 22
46 15 13
60 29 27
106 72 71
129 95 93
99 61 60
73 33 33
110 69 67
94 50 49
61 16 13
92 44 42
130 82 80
110 62 60
102 54 52
117 72 66
144 100 89
100 58 42
110 69 49
188 151 125
159 124 94
144 109 77
140 107 72
139 109 73
143 113 79
140 110 74
152 118 81
159 124 86
154 119 81
146 111 73
146 111 71
146 111 69
148 113 71
158 124 79
165 131 86
164 130 85
68 39 43
56 27 31
50 19 24
68 36 39
85 50 56
76 41 45
62 27 31
65 30 34
49 17 20
58 26 27
106 72 73
129 93 95
106 65 69
70 28 30
102 57 60
98 52 55
66 17 20
99 50 53
134 85 88
116 67 70
96 48 48
106 58 56
134 87 81
108 64 51
112 69 52
183 143 118
149 112 83
127 92 60
130 95 63
129 96 61
132 99 66
129 96 61
137 103 66
129 94 56
126 91 53
141 106 66
159 124 82
157 122 80
156 122 77
167 133 88
166 132 87
163 129 84
62 33 38
59 30 35
61 30 36
72 40 45
77 42 49
65 30 36
59 24 30
68 33 39
58 23 29
65 30 34
103 67 71
123 87 91
105 64 70
75 32 39
95 50 57
104 57 63
90 41 47
111 60 67
133 82 89
116 65 72
109 58 63
111 63 63
135 87 83
118 74 65
121 78 62
167 126 104
129 92 65
110 75 43
123 88 56
116 83 50
117 84 51
119 86 51
128 94 57
139 104 66
140 105 65
139 104 64
149 114 72
156 121 79
157 120 76
158 121 77
158 121 77
154 117 73
59 29 37
61 32 37
68 35 44
72 39 46
73 37 47
64 29 36
66 31 38
76 41 48
65 30 37
72 37 43
98 61 69
118 78 86
97 56 64
78 32 42
86 39 49
104 54 63
94 42 54
115 64 73
138 86 98
113 62 71
104 53 60
95 45 48
129 79 78
131 84 78
124 78 65
158 115 96
131 91 66
119 82 53
132 96 64
112 77 45
113 78 46
126 92 57
133 97 61
136 101 63
139 104 64
150 115 75
158 123 83
151 116 74
148 111 69
156 119 75
156 119 75
151 114 70
65 35 45
67 37 45
74 41 52
78 45 54
79 43 55
76 40 50
75 37 48
75 37 48
73 37 47
69 34 41
93 55 66
111 71 80
98 56 66
84 38 49
85 37 49
101 51 62
106 54 67
122 68 81
130 76 90
105 51 64
101 48 58
94 43 48
122 72 73
144 97 91
123 77 64
138 95 76
138 96 72
142 103 74
135 99 67
121 86 54
122 87 55
126 92 57
130 94 58
136 101 63
136 101 63
148 113 73
168 133 93
165 130 88
159 122 80
169 132 90
165 128 84
160 123 79
75 45 55
76 46 56
82 49 60
85 52 63
87 51 63
84 48 60
82 44 57
82 44 55
72 36 46
68 32 42
91 53 64
110 70 81
100 57 67
87 41 52
87 37 49
100 48 61
109 55 69
119 65 79
125 71 85
106 52 65
105 51 64
96 43 51
123 71 73
149 100 95
120 72 62
128 82 66
132 87 64
134 93 65
129 90 61
120 84 52
125 89 57
134 100 65
136 100 64
139 104 66
144 109 71
156 121 83
161 126 86
148 113 73
147 110 68
165 128 86
168 131 87
165 128 84
75 45 57
75 45 57
80 46 60
83 49 63
85 49 63
83 45 58
80 42 55
79 41 54
72 34 45
68 30 41
92 52 63
109 69 80
102 59 69
90 44 55
88 38 50
97 45 58
115 61 77
120 63 80
123 66 81
109 53 66
110 54 67
98 45 53
122 70 72
149 100 95
126 78 68
129 83 67
146 101 78
147 106 78
137 98 69
125 89 57
123 87 53
129 93 59
127 91 55
130 94 58
139 104 66
149 114 76
152 117 77
152 117 77
164 129 87
183 148 106
187 152 110
185 150 108
76 46 58
75 45 57
78 44 58
81 47 61
86 48 63
83 45 60
81 43 56
79 41 54
71 33 44
69 31 42
94 54 65
110 68 78
104 58 69
93 45 57
92 40 53
98 44 58
122 65 82
122 65 82
121 64 79
109 53 66
109 53 66
102 46 55
122 67 70
145 94 90
140 90 79
145 98 80
170 125 102
166 122 95
152 111 81
142 103 72
136 97 64
133 97 63
128 92 56
125 89 53
123 87 51
119 84 46
119 84 46
133 98 58
148 113 73
152 117 75
149 114 72
149 114 72
73 42 57
72 41 56
75 41 57
78 44 60
83 45 60
82 44 59
80 42 55
79 41 54
72 34 45
72 34 45
96 56 65
109 67 77
103 57 68
95 48 58
95 43 55
101 47 60
122 65 80
125 67 82
120 62 77
108 50 64
108 50 64
105 49 58
120 65 68
140 89 85
138 88 77
142 95 77
162 117 94
148 104 77
139 98 68
140 101 68
146 107 74
145 109 75
143 107 73
136 102 65
131 97 60
124 90 52
117 83 45
126 93 52
133 98 58
126 91 51
129 94 54
130 95 55
68 37 52
67 36 51
70 36 52
73 39 55
77 39 54
77 39 54
76 38 51
77 39 52
75 37 48
78 38 49
99 57 67
108 65 74
101 55 65
98 48 59
98 46 58
104 50 63
118 60 75
121 63 78
117 59 74
108 50 64
106 48 60
106 49 56
120 65 68
142 89 85
139 89 78
140 91 74
147 101 77
128 84 55
126 85 55
130 89 57
144 105 72
143 107 73
150 116 81
149 115 80
161 127 90
172 138 101
170 136 99
169 135 97
174 139 101
173 138 98
165 130 90
167 132 92
70 39 54
70 39 54
73 39 55
75 41 57
79 41 56
78 40 55
81 40 54
83 42 56
82 42 53
80 40 51
97 55 65
104 61 70
98 52 62
99 49 58
101 50 59
106 53 63
113 55 69
115 57 71
112 54 68
109 51 65
107 49 61
105 48 55
118 63 66
145 92 88
153 103 92
149 100 83
144 98 74
130 86 57
137 96 66
130 89 57
141 102 69
139 103 69
145 111 76
149 116 81
165 131 96
178 144 107
177 143 106
174 140 102
179 145 107
184 150 112
183 150 109
186 153 112
70 37 54
71 39 54
73 39 55
77 40 57
77 39 54
79 38 54
80 39 53
84 42 56
86 44 58
82 40 52
96 53 63
101 58 68
98 51 61
101 51 60
103 52 61
106 53 63
110 54 67
111 53 67
108 50 64
111 53 65
107 49 61
102 45 52
116 60 61
148 95 89
154 105 91
145 98 78
133 87 63
127 83 54
141 100 68
127 86 54
138 99 66
135 99 65
134 100 65
138 104 69
141 107 72
137 103 66
133 99 62
135 101 63
140 106 68
142 109 68
149 116 75
152 119 78
72 34 55
71 34 52
72 35 52
77 38 56
78 40 55
79 38 54
81 38 55
84 40 57
87 43 60
90 46 63
96 49 65
99 51 65
98 50 62
99 49 60
104 53 62
110 57 67
111 55 68
113 55 69
109 51 65
113 53 65
110 50 62
107 47 55
109 50 52
139 84 79
149 100 86
143 96 76
126 82 57
113 72 42
130 89 57
130 92 56
133 95 59
126 88 52
124 88 54
133 97 63
132 96 60
121 85 49
117 81 45
126 91 53
133 98 60
134 99 59
138 103 63
141 106 64
77 38 59
76 37 56
77 38 57
80 41 59
83 42 58
83 40 57
85 41 58
87 43 60
92 45 65
94 47 67
98 49 68
99 51 67
99 48 63
97 47 58
102 50 62
108 55 65
113 57 70
115 59 72
114 53 68
114 54 66
111 49 62
110 49 57
110 51 53
137 82 77
156 107 93
149 104 83
133 92 64
125 84 52
133 94 61
123 85 49
124 86 50
125 87 51
120 84 50
135 99 65
145 109 73
142 106 70
138 103 65
142 107 69
147 112 72
148 113 73
143 108 66
145 110 68
80 38 60
79 37 57
80 38 58
81 40 58
83 40 57
83 40 57
85 41 58
86 42 59
94 47 67
96 47 68
100 49 68
101 50 67
99 46 62
97 45 57
100 46 59
105 52 62
114 58 71
117 61 74
115 54 69
115 55 67
114 52 65
114 53 61
112 53 55
135 82 76
152 103 89
140 95 74
125 84 56
127 88 55
138 99 66
130 92 56
136 98 62
145 107 71
157 121 87
159 123 89
158 122 86
155 119 83
155 120 82
158 123 85
158 123 83
157 122 82
154 119 77
156 121 79
79 37 59
79 37 57
79 37 57
80 39 57
81 38 55
82 39 56
84 40 57
87 40 58
94 45 66
96 47 68
101 50 69
102 51 68
101 48 64
98 46 58
100 46 59
103 50 60
111 55 68
117 59 73
116 55 70
116 56 68
117 55 68
119 59 67
116 57 59
135 82 76
156 107 93
139 94 73
117 75 50
121 82 51
137 98 65
135 97 61
140 102 66
150 112 76
155 119 85
149 113 79
143 107 71
142 106 70
149 114 76
158 123 85
166 131 91
169 134 94
172 137 95
176 141 99
81 37 60
82 39 59
82 39 59
82 39 58
84 40 57
86 42 59
89 42 60
89 42 60
92 43 64
96 44 66
102 49 69
105 52 70
104 50 66
102 48 61
103 47 60
105 49 60
110 52 66
116 58 72
116 55 70
117 57 69
120 58 71
121 61 69
117 58 60
135 82 76
152 104 90
140 95 74
117 75 50
119 80 49
129 93 59
130 94 60
133 95 59
139 101 65
144 108 74
144 108 74
143 107 71
137 101 65
132 97 59
131 96 58
136 101 61
142 107 67
150 115 73
154 119 77
82 38 61
83 39 62
84 41 61
83 40 59
85 41 58
87 43 60
90 43 61
90 41 60
92 40 62
95 43 65
101 48 68
105 52 70
106 52 68
103 49 63
105 49 62
106 50 61
112 54 68
116 58 72
115 54 69
118 58 70
119 57 70
119 59 67
113 57 58
135 82 76
144 96 84
140 97 78
122 82 56
125 86 55
126 90 58
126 90 56
126 88 52
130 92 56
134 98 64
137 101 67
140 104 68
141 105 69
141 106 68
145 110 72
150 115 75
154 119 79
140 105 63
142 107 65
83 38 61
85 40 63
86 41 62
85 40 60
87 40 58
89 42 60
90 41 60
89 40 59
93 41 63
96 42 65
101 46 67
104 49 68
106 49 66
105 48 63
106 48 62
107 49 61
115 57 71
116 58 73
114 53 68
116 56 68
117 55 68
115 55 63
111 55 56
135 85 78
162 114 102
155 112 93
131 91 65
130 94 62
128 92 60
125 89 55
123 84 51
129 90 57
144 108 74
143 107 73
140 104 68
141 105 69
148 113 75
158 123 85
163 128 88
163 128 88
164 129 87
165 130 88
85 40 63
87 42 65
88 43 64
86 41 62
89 42 62
90 43 61
91 42 61
91 40 59
95 41 64
97 43 66
100 45 66
103 48 69
105 48 67
103 46 61
105 47 61
107 49 61
116 58 73
115 57 72
112 51 66
115 54 69
115 53 66
112 52 60
111 55 58
138 87 83
180 132 120
163 120 101
131 91 65
130 94 62
133 97 65
135 99 65
135 96 63
143 104 71
145 109 75
146 110 76
143 107 71
136 100 64
134 99 61
139 104 66
144 109 69
145 110 70
142 107 65
145 110 68
88 42 68
86 41 64
88 40 62
89 41 63
90 41 62
89 40 61
91 39 61
92 40 62
97 43 66
98 44 67
101 46 69
104 46 68
101 42 62
109 51 66
104 46 60
109 51 63
116 55 71
114 53 69
117 54 71
117 55 70
116 56 68
117 57 65
110 54 57
148 97 93
194 148 135
178 137 117
127 90 63
112 77 45
135 99 67
125 89 55
134 95 62
142 103 70
147 111 77
146 110 76
143 107 71
140 104 68
136 101 63
148 113 75
146 111 71
149 114 74
139 104 62
132 97 55
87 41 67
87 42 65
89 41 65
90 42 64
91 42 63
90 41 62
94 42 64
96 44 66
99 45 68
99 45 68
104 46 70
107 49 71
105 46 66
112 54 69
106 48 62
110 52 66
117 56 72
115 54 70
119 56 73
119 57 72
118 57 72
117 60 69
112 57 60
153 102 98
206 160 147
184 143 123
125 88 61
104 69 37
125 89 57
114 78 44
124 85 52
133 94 61
141 105 71
140 104 70
138 102 66
139 103 67
144 109 71
167 132 94
176 141 101
188 153 113
182 147 105
178 143 101
86 40 66
87 42 65
90 42 66
91 43 65
91 42 63
91 42 63
97 45 67
102 50 72
101 47 71
101 47 71
106 48 72
111 53 75
111 52 72
117 59 74
108 50 64
110 52 66
118 57 73
117 56 72
122 59 76
122 60 75
120 59 74
118 61 70
116 61 64
158 109 104
205 161 148
182 141 121
122 85 58
104 69 37
129 94 62
123 89 54
135 99 65
146 110 76
152 116 82
150 114 80
145 109 73
142 106 70
144 109 71
168 133 95
182 147 107
197 162 122
210 175 133
210 175 133
